<mxfile host="Electron" modified="2024-01-12T22:45:04.292Z" agent="Mozilla/5.0 (X11; Linux x86_64) AppleWebKit/537.36 (KHTML, like Gecko) draw.io/22.1.18 Chrome/120.0.6099.199 Electron/28.1.2 Safari/537.36" etag="TZejr4FyHeOoDDzJUM65" version="22.1.18" type="device">
  <diagram name="Page-1" id="eM62JYf68v1V2HDvHykL">
    <mxGraphModel dx="1434" dy="-1545" grid="1" gridSize="10" guides="1" tooltips="1" connect="1" arrows="1" fold="1" page="1" pageScale="1" pageWidth="827" pageHeight="1169" math="0" shadow="0">
      <root>
        <mxCell id="0" />
        <mxCell id="1" parent="0" />
        <mxCell id="5EiW9JHbt-SVbsFcQMcL-1" value="Prototype" style="swimlane;fontStyle=2;align=center;verticalAlign=top;childLayout=stackLayout;horizontal=1;startSize=40;horizontalStack=0;resizeParent=1;resizeLast=0;collapsible=1;marginBottom=0;rounded=0;shadow=0;strokeWidth=1;" vertex="1" parent="1">
          <mxGeometry x="210" y="2502" width="160" height="94" as="geometry">
            <mxRectangle x="230" y="140" width="160" height="26" as="alternateBounds" />
          </mxGeometry>
        </mxCell>
        <mxCell id="5EiW9JHbt-SVbsFcQMcL-2" value="" style="line;html=1;strokeWidth=1;align=left;verticalAlign=middle;spacingTop=-1;spacingLeft=3;spacingRight=3;rotatable=0;labelPosition=right;points=[];portConstraint=eastwest;" vertex="1" parent="5EiW9JHbt-SVbsFcQMcL-1">
          <mxGeometry y="40" width="160" height="8" as="geometry" />
        </mxCell>
        <mxCell id="5EiW9JHbt-SVbsFcQMcL-3" value="+  clone () : void" style="text;align=left;verticalAlign=top;spacingLeft=4;spacingRight=4;overflow=hidden;rotatable=0;points=[[0,0.5],[1,0.5]];portConstraint=eastwest;" vertex="1" parent="5EiW9JHbt-SVbsFcQMcL-1">
          <mxGeometry y="48" width="160" height="26" as="geometry" />
        </mxCell>
        <mxCell id="5EiW9JHbt-SVbsFcQMcL-4" value="concreteProtype1" style="swimlane;fontStyle=0;align=center;verticalAlign=top;childLayout=stackLayout;horizontal=1;startSize=26;horizontalStack=0;resizeParent=1;resizeLast=0;collapsible=1;marginBottom=0;rounded=0;shadow=0;strokeWidth=1;" vertex="1" parent="1">
          <mxGeometry x="180" y="2752" width="160" height="80" as="geometry">
            <mxRectangle x="130" y="380" width="160" height="26" as="alternateBounds" />
          </mxGeometry>
        </mxCell>
        <mxCell id="5EiW9JHbt-SVbsFcQMcL-5" value="" style="line;html=1;strokeWidth=1;align=left;verticalAlign=middle;spacingTop=-1;spacingLeft=3;spacingRight=3;rotatable=0;labelPosition=right;points=[];portConstraint=eastwest;" vertex="1" parent="5EiW9JHbt-SVbsFcQMcL-4">
          <mxGeometry y="26" width="160" height="8" as="geometry" />
        </mxCell>
        <mxCell id="5EiW9JHbt-SVbsFcQMcL-6" value="+  clone () : void" style="text;align=left;verticalAlign=top;spacingLeft=4;spacingRight=4;overflow=hidden;rotatable=0;points=[[0,0.5],[1,0.5]];portConstraint=eastwest;" vertex="1" parent="5EiW9JHbt-SVbsFcQMcL-4">
          <mxGeometry y="34" width="160" height="26" as="geometry" />
        </mxCell>
        <mxCell id="5EiW9JHbt-SVbsFcQMcL-7" value="" style="endArrow=block;endSize=10;endFill=0;shadow=0;strokeWidth=1;rounded=0;edgeStyle=elbowEdgeStyle;elbow=vertical;" edge="1" parent="1" source="5EiW9JHbt-SVbsFcQMcL-4" target="5EiW9JHbt-SVbsFcQMcL-1">
          <mxGeometry width="160" relative="1" as="geometry">
            <mxPoint x="350" y="2595" as="sourcePoint" />
            <mxPoint x="350" y="2595" as="targetPoint" />
          </mxGeometry>
        </mxCell>
        <mxCell id="5EiW9JHbt-SVbsFcQMcL-8" value="concreteProtype1" style="swimlane;fontStyle=0;align=center;verticalAlign=top;childLayout=stackLayout;horizontal=1;startSize=26;horizontalStack=0;resizeParent=1;resizeLast=0;collapsible=1;marginBottom=0;rounded=0;shadow=0;strokeWidth=1;" vertex="1" parent="1">
          <mxGeometry x="480" y="2752" width="160" height="70" as="geometry">
            <mxRectangle x="340" y="380" width="170" height="26" as="alternateBounds" />
          </mxGeometry>
        </mxCell>
        <mxCell id="5EiW9JHbt-SVbsFcQMcL-9" value="" style="line;html=1;strokeWidth=1;align=left;verticalAlign=middle;spacingTop=-1;spacingLeft=3;spacingRight=3;rotatable=0;labelPosition=right;points=[];portConstraint=eastwest;" vertex="1" parent="5EiW9JHbt-SVbsFcQMcL-8">
          <mxGeometry y="26" width="160" height="12" as="geometry" />
        </mxCell>
        <mxCell id="5EiW9JHbt-SVbsFcQMcL-10" value="+  clone () : void" style="text;align=left;verticalAlign=top;spacingLeft=4;spacingRight=4;overflow=hidden;rotatable=0;points=[[0,0.5],[1,0.5]];portConstraint=eastwest;" vertex="1" parent="5EiW9JHbt-SVbsFcQMcL-8">
          <mxGeometry y="38" width="160" height="26" as="geometry" />
        </mxCell>
        <mxCell id="5EiW9JHbt-SVbsFcQMcL-11" value="" style="endArrow=block;endSize=10;endFill=0;shadow=0;strokeWidth=1;rounded=0;edgeStyle=elbowEdgeStyle;elbow=vertical;" edge="1" parent="1" source="5EiW9JHbt-SVbsFcQMcL-8" target="5EiW9JHbt-SVbsFcQMcL-1">
          <mxGeometry width="160" relative="1" as="geometry">
            <mxPoint x="360" y="2765" as="sourcePoint" />
            <mxPoint x="460" y="2663" as="targetPoint" />
          </mxGeometry>
        </mxCell>
        <mxCell id="5EiW9JHbt-SVbsFcQMcL-12" value="Client" style="swimlane;fontStyle=2;align=center;verticalAlign=top;childLayout=stackLayout;horizontal=1;startSize=40;horizontalStack=0;resizeParent=1;resizeLast=0;collapsible=1;marginBottom=0;rounded=0;shadow=0;strokeWidth=1;" vertex="1" parent="1">
          <mxGeometry x="510" y="2412" width="160" height="94" as="geometry">
            <mxRectangle x="230" y="140" width="160" height="26" as="alternateBounds" />
          </mxGeometry>
        </mxCell>
        <mxCell id="5EiW9JHbt-SVbsFcQMcL-13" value="" style="line;html=1;strokeWidth=1;align=left;verticalAlign=middle;spacingTop=-1;spacingLeft=3;spacingRight=3;rotatable=0;labelPosition=right;points=[];portConstraint=eastwest;" vertex="1" parent="5EiW9JHbt-SVbsFcQMcL-12">
          <mxGeometry y="40" width="160" height="8" as="geometry" />
        </mxCell>
        <mxCell id="5EiW9JHbt-SVbsFcQMcL-14" value="+  Operation(): void" style="text;align=left;verticalAlign=top;spacingLeft=4;spacingRight=4;overflow=hidden;rotatable=0;points=[[0,0.5],[1,0.5]];portConstraint=eastwest;" vertex="1" parent="5EiW9JHbt-SVbsFcQMcL-12">
          <mxGeometry y="48" width="160" height="26" as="geometry" />
        </mxCell>
        <mxCell id="5EiW9JHbt-SVbsFcQMcL-15" value="" style="endArrow=open;shadow=0;strokeWidth=1;rounded=0;endFill=1;edgeStyle=elbowEdgeStyle;elbow=vertical;dashed=1;exitX=0;exitY=0.5;exitDx=0;exitDy=0;entryX=0.431;entryY=-0.043;entryDx=0;entryDy=0;entryPerimeter=0;" edge="1" parent="1" source="5EiW9JHbt-SVbsFcQMcL-14" target="5EiW9JHbt-SVbsFcQMcL-1">
          <mxGeometry x="0.5" y="41" relative="1" as="geometry">
            <mxPoint x="600" y="2516" as="sourcePoint" />
            <mxPoint x="800" y="2612" as="targetPoint" />
            <mxPoint x="-40" y="32" as="offset" />
            <Array as="points">
              <mxPoint x="390" y="2422" />
            </Array>
          </mxGeometry>
        </mxCell>
        <mxCell id="5EiW9JHbt-SVbsFcQMcL-16" value="" style="resizable=0;align=left;verticalAlign=bottom;labelBackgroundColor=none;fontSize=12;" connectable="0" vertex="1" parent="5EiW9JHbt-SVbsFcQMcL-15">
          <mxGeometry x="-1" relative="1" as="geometry">
            <mxPoint y="4" as="offset" />
          </mxGeometry>
        </mxCell>
        <mxCell id="5EiW9JHbt-SVbsFcQMcL-17" value="Prototype" style="text;html=1;align=center;verticalAlign=middle;resizable=0;points=[];autosize=1;strokeColor=none;fillColor=none;" vertex="1" parent="1">
          <mxGeometry x="305" y="2400" width="70" height="30" as="geometry" />
        </mxCell>
      </root>
    </mxGraphModel>
  </diagram>
</mxfile>
